Coordinates
version=1
nRows=9
nColumns=24
inDegrees=yes

Units are S.I. units (second, meters, Newtons, ...)
Angles are in degrees.

endheader
time	pelvis_tilt	pelvis_list	pelvis_rotation	pelvis_tx	pelvis_ty	pelvis_tz	hip_flexion_r	hip_adduction_r	hip_rotation_r	knee_angle_r	ankle_angle_r	subtalar_angle_r	mtp_angle_r	hip_flexion_l	hip_adduction_l	hip_rotation_l	knee_angle_l	ankle_angle_l	subtalar_angle_l	mtp_angle_l	lumbar_extension	lumbar_bending	lumbar_rotation
      3.93500000	     -2.44827512	     -0.37117679	    362.32116266	      0.19698671	      1.38700253	     -0.97046588	     13.13593401	      2.87898966	      4.11150837	    -14.98618495	     -2.90411333	    -11.06299215	      4.57927221	     13.03621465	      2.82366906	      5.12123744	    -55.37799108	     -2.81051880	     11.18844112	     41.16391170	    -12.00242703	      7.80026913	     -0.61780214
      3.94000000	     -2.51695491	     -0.28114979	    362.30034411	      0.20173118	      1.38748895	     -0.97018567	     12.84610464	      2.81931785	      4.18323152	    -14.87380064	     -2.72822755	    -11.09300399	      4.42371749	     13.76142127	      2.88487933	      4.97044984	    -55.46661114	     -2.39713839	     11.37720266	     40.67772391	    -11.95795508	      7.67048930	     -0.69579404
      3.94500000	     -2.49746064	     -0.17959160	    362.28833210	      0.20650392	      1.38807838	     -0.96993868	     12.43280226	      2.74389436	      4.23295656	    -14.70876363	     -2.58424510	    -11.14567685	      4.41523891	     14.34896436	      2.95935721	      4.83554527	    -55.42486316	     -2.07419547	     11.34112883	     40.63029767	    -12.00960624	      7.53667589	     -0.77608306
      3.95000000	     -2.62568984	     -0.09367048	    362.26385180	      0.21117248	      1.38842994	     -0.96961714	     12.22054399	      2.69527968	      4.36284672	    -14.61377241	     -2.42356083	    -11.24404058	      4.16422056	     15.13681440	      3.00664873	      4.67829197	    -55.44085385	     -1.61407131	     11.64525804	     39.80457249	    -11.91211898	      7.39883745	     -0.84735634
      3.95500000	     -2.63660275	      0.00612852	    362.25581277	      0.21590029	      1.38891334	     -0.96935375	     11.84820198	      2.62433196	      4.43206531	    -14.46284109	     -2.26342149	    -11.31647646	      4.01009868	     15.74553158	      3.07129872	      4.53625371	    -55.32187739	     -1.22243049	     11.70668999	     39.26148840	    -11.92861353	      7.25610922	     -0.93846621
      3.96000000	     -2.67306698	      0.11100535	    362.24649852	      0.22060747	      1.38934133	     -0.96907898	     11.50661266	      2.54941203	      4.53209695	    -14.31484289	     -2.11825277	    -11.42480021	      3.89432226	     16.37100757	      3.13970099	      4.39818565	    -55.14243067	     -0.85571200	     11.74601599	     38.85558389	    -11.92540720	      7.10368797	     -1.01550920
      3.96500000	     -2.68916016	      0.21998767	    362.24617222	      0.22530205	      1.38976676	     -0.96883229	     11.13934736	      2.46656543	      4.62145041	    -14.15953457	     -1.97076077	    -11.52707250	      3.79157386	     16.95561889	      3.21516353	      4.27161714	    -54.89723808	     -0.49774181	     11.74403195	     38.41841998	    -11.94572130	      6.95060638	     -1.10444281
      3.97000000	     -2.71866543	      0.34723880	    362.24605659	      0.23000272	      1.39016651	     -0.96859319	     10.78435545	      2.36242348	      4.73294610	    -14.00274201	     -1.81749081	    -11.62409884	      3.72805207	     17.53223768	      3.31272856	      4.15320076	    -54.57554613	     -0.19405620	     11.69081402	     38.12131643	    -11.94535615	      6.77537435	     -1.20264080
      3.97500000	     -2.73138637	      0.45970598	    362.25484583	      0.23469376	      1.39054314	     -0.96837075	     10.41490766	      2.27224542	      4.79351092	    -13.85217936	     -1.66186045	    -11.73655991	      3.62008804	     18.07747141	      3.39013930	      4.03151433	    -54.21152614	      0.16953328	     11.63912951	     37.61519780	    -11.97122691	      6.61305023	     -1.26218380
